# xmcd
#
# Track frame offsets:
#	150
#	29613
#	55691
#	76002
#	94090
#	102794
#	119020
#	134575
#	152163
#	169471
#	184401
#	203506
#	220206
#	238981
#	257565
#
# Disc length: 3667 seconds
#
# Revision: 1
# Processed by: cddbd v1.4b42PL1 Copyright (c) Steve Scherf et al.
# Submitted via: audiograbber 1.80
#
DISCID=d60e510f
DTITLE=diverse - New Orleans Festival, Innsbruck 2001
DYEAR=1900
DGENRE=
TTITLE0=Gary Brown and Feelings - The Blues Is Allright
TTITLE1=Gary Brown and Feelings - Mr. Clean Head
TTITLE2=The Regal Jazz and Brass Bnad - I Go a Big Fat Man
TTITLE3=George Nussbaumer - Sweet Woman
TTITLE4=Franz Posch Combo - Mambo Nr. 8
TTITLE5=Die Templesänger - Sing A Song
TTITLE6=Bonneville - Route 66
TTITLE7=Petra Gruber and Friends - Rompin' Stompin' Blues
TTITLE8=Charly Augschäll Hotline - Take That Thing
TTITLE9=Gail Anderson and The Rhythm Kings - It Won't Be Long
TTITLE10=The Markus Linder Blues Band - Vorarlberger Blues-Man
TTITLE11=The Regal Jazz and Brass Band - I'm Walking
TTITLE12=George Nussbaumer - Shelter Of Love
TTITLE13=Gail Anderson and The Rhythm Kings - Sweet Lover
TTITLE14=Die Templesänger - The Preacher's Wife
EXTD=Eine Produktion des Stadtmarketing Innsbruck anlässlich des New-Orleans-Fe
EXTD=stivals vom 15. bis 19. August 2001 unter Mitwirkung aller auf dieser Komp
EXTD=ilation vertretenen Künstler und Bands.\n\nZusammenstellung: Markus Lindne
EXTD=r\nTontechnische Betreuung: Karl Ecke, Fly-By-night-Tonstudio\n
EXTT0=
EXTT1=
EXTT2=
EXTT3=
EXTT4=
EXTT5=
EXTT6=
EXTT7=
EXTT8=
EXTT9=
EXTT10=
EXTT11=
EXTT12=
EXTT13=
EXTT14=
PLAYORDER=
